<?xml version="1.0" encoding="utf-8"?>
<!-- Generator: Adobe Illustrator 26.4.1, SVG Export Plug-In . SVG Version: 6.00 Build 0)  -->
<svg version="1.1"
	 id="Layer_1" xmlns:sodipodi="http://sodipodi.sourceforge.net/DTD/sodipodi-0.dtd" xmlns:inkscape="http://www.inkscape.org/namespaces/inkscape"
	 xmlns="http://www.w3.org/2000/svg" xmlns:xlink="http://www.w3.org/1999/xlink" x="0px" y="0px" viewBox="0 0 1500 1500"
	 style="enable-background:new 0 0 1500 1500;" xml:space="preserve">
<style type="text/css">
	.st0{opacity:0.6;fill:#5e5e5e;}
	.st1{fill:#5e5e5e;}
</style>
<sodipodi:namedview  pagecolor="#303030" showgrid="true">
	<inkscape:grid  color="#4772b3" id="grid5" opacity="0.2" spacingx="100" spacingy="100" units="px" visible="true">
		</inkscape:grid>
</sodipodi:namedview>
<polygon class="st0" points="1069.4,1029.1 950.7,910.4 1062.2,801.4 1288.3,1027.6 "/>
<path class="st1" d="M1394.8,1047.2v-0.3c0-10.8-8.7-19.6-19.6-19.6H971.9c-10.8,0-19.6,8.7-19.6,19.6v21.8
	c0,10.8,8.7,19.6,19.6,19.6h240c-0.3,0.6-0.7,1.2-1,1.8c-6.1,10.9-12.6,21.5-19.4,32c-0.6,1-1.3,1.9-1.9,2.9
	c-3.3,4.9-6.6,9.8-10,14.7c-0.2,0.2-0.3,0.5-0.5,0.7c-3.7,5.2-7.4,10.3-11.2,15.3c-0.6,0.8-1.2,1.6-1.8,2.3
	c-3.4,4.5-6.9,8.9-10.5,13.3c-0.5,0.6-0.9,1.1-1.4,1.7c-4,4.9-8.1,9.7-12.2,14.5c-0.5,0.5-1,1.1-1.4,1.6c-3.7,4.2-7.5,8.4-11.4,12.6
	c-0.7,0.7-1.3,1.4-2,2.1c-4.3,4.6-8.7,9.1-13.2,13.6c-0.2,0.2-0.4,0.4-0.6,0.6c-4.2,4.2-8.5,8.3-12.9,12.4c-0.8,0.7-1.6,1.5-2.4,2.2
	c-9.2,8.5-18.6,16.6-28.3,24.5c-0.9,0.7-1.8,1.4-2.7,2.2c-4.8,3.8-9.6,7.6-14.5,11.3c-0.1,0-0.1,0.1-0.2,0.1
	c-5,3.8-10.1,7.5-15.3,11.1c-0.9,0.6-1.9,1.3-2.8,1.9c-4.6,3.2-9.2,6.3-13.9,9.4c-0.6,0.4-1.2,0.8-1.8,1.2
	c-5.2,3.4-10.5,6.7-15.9,9.9c-0.9,0.5-1.8,1-2.7,1.6c-4.6,2.8-9.3,5.5-14.1,8.1c-1,0.5-1.9,1.1-2.9,1.6c-5.4,3-10.9,5.9-16.5,8.7
	c-0.7,0.4-1.4,0.7-2.1,1c-4.9,2.5-9.8,4.9-14.8,7.2c-1.2,0.6-2.4,1.1-3.6,1.7c-5.7,2.6-11.4,5.1-17.1,7.6c-0.2,0.1-0.5,0.2-0.7,0.3
	c-5.4,2.3-10.9,4.5-16.5,6.6c-1.4,0.5-2.7,1-4.1,1.5c-5.6,2.1-11.3,4.2-17,6.1c-0.2,0.1-0.3,0.1-0.5,0.2c-5.9,2-11.8,3.9-17.8,5.7
	c-1.4,0.4-2.9,0.9-4.3,1.3c-5.2,1.5-10.4,3-15.6,4.4c-0.9,0.2-1.8,0.5-2.7,0.7c-6,1.6-12,3-18.1,4.4c-1.4,0.3-2.8,0.6-4.2,0.9
	c-5.1,1.1-10.1,2.1-15.2,3.1c-1.3,0.3-2.7,0.5-4,0.8c-6.1,1.1-12.3,2.1-18.5,3.1c-1.3,0.2-2.5,0.4-3.8,0.5c-5.2,0.7-10.4,1.4-15.6,2
	c-1.6,0.2-3.1,0.4-4.7,0.5c-6.3,0.7-12.6,1.3-18.9,1.7c-0.9,0.1-1.8,0.1-2.6,0.2c-5.6,0.4-11.2,0.7-16.8,0.9
	c-1.7,0.1-3.4,0.1-5.1,0.2c-6.4,0.2-12.9,0.4-19.4,0.4c-98.5,0-191.2-24.4-272.5-67.5l51.8-105.5c-146-77.8-245.7-231.6-245.7-408.3
	c0-154.4,76.1-291.3,192.7-375.3l467.2,467.2c10,10,23.4,15.6,37.5,15.6c14.2,0,27.5-5.5,37.5-15.6l79.1-79.1
	c10-10,15.6-23.4,15.6-37.5c0-14.2-5.5-27.5-15.6-37.5L549.2,241.8c49-13.4,100.6-20.5,153.8-20.5c321.9,0,582.8,260.9,582.8,582.8
	c0,66.3-11.1,130-31.5,189.3l-0.1,0.2l10.4,10.4l0.3-0.9c22.1-62.3,34.2-129.2,34.2-199c0-328.6-267.3-595.9-595.9-595.9
	c-56.7,0-111.5,8-163.4,22.8L424,115c-5.4-5.4-11.8-9.4-18.6-11.8c-19.4-8.4-42.9-4.7-58.7,11.1l-3.2,3.2
	c-18.6-16-46.7-15.2-64.4,2.4c-9,9-13.9,20.8-13.9,33.5c0,11.4,4.1,22.3,11.5,30.9l-9.1,9.1c-10,10-15.6,23.4-15.6,37.5
	s5.5,27.5,15.6,37.5L335,336C196.5,445.2,107.4,614.4,107.4,804.1c0,328.6,267.4,595.9,595.9,595.9c225.7,0,422.4-126.1,523.5-311.5
	h148.4c10.8,0,19.6-8.7,19.6-19.6V1047.2C1394.8,1047.2,1394.8,1047.2,1394.8,1047.2z"/>
</svg>
