<?xml version="1.0" encoding="UTF-8"?><svg id="Layer_1" xmlns="http://www.w3.org/2000/svg" xmlns:xlink="http://www.w3.org/1999/xlink" viewBox="0 0 270.49 270.49"><defs><style>.cls-1,.cls-2{fill:none;}.cls-3{fill:#fff;}.cls-3,.cls-4,.cls-5,.cls-2{stroke-miterlimit:10;}.cls-3,.cls-5,.cls-2{stroke:#231f20;}.cls-3,.cls-2{stroke-width:5px;}.cls-6{fill:url(#linear-gradient);}.cls-7,.cls-4,.cls-5{fill:#231f20;}.cls-4{stroke:#fff;stroke-width:10px;}.cls-5{stroke-width:4px;}</style><linearGradient id="linear-gradient" x1="-569.68" y1="-169.58" x2="-347.38" y2="-404.69" gradientTransform="translate(469.49 190.54) rotate(-18.98) scale(.84 .66) skewX(-33.88)" gradientUnits="userSpaceOnUse"><stop offset=".28" stop-color="#ec1c24"/><stop offset=".32" stop-color="#f9ec31"/><stop offset=".35" stop-color="#00a14b"/><stop offset=".37" stop-color="#00adee"/><stop offset=".9" stop-color="#00adee"/></linearGradient></defs><path class="cls-4" d="M258.06,189.56h-22.82c5.35-13.18,8.31-27.58,8.31-42.66,0-62.73-51.03-113.77-113.76-113.77-10.82,0-21.28,1.52-31.2,4.35l-22.15-22.15c-3.73-3.73-9.79-3.73-13.52,0l-1.16,1.16-.2-.2c-3.53-3.53-9.26-3.53-12.79,0-1.71,1.71-2.65,3.98-2.65,6.39s.94,4.69,2.65,6.39l.2,.2-1.16,1.16c-3.73,3.73-3.73,9.79,0,13.52l12.73,12.73c-27.06,20.82-44.54,53.51-44.54,90.21,0,62.73,51.04,113.77,113.77,113.77,43.08,0,80.64-24.07,99.94-59.46h28.33c2.07,0,3.74-1.67,3.74-3.74v-4.16c0-2.07-1.67-3.74-3.74-3.74Z"/><path class="cls-2" d="M89.53,43.1C47.94,59.21,18.44,99.61,18.44,146.89c0,61.45,49.82,111.27,111.27,111.27,44.52,0,82.93-26.15,100.72-63.92"/><circle class="cls-3" cx="129.71" cy="146.89" r="111.27"/><polygon class="cls-6" points="200.18 190.32 68.24 58.38 89.28 37.34 241.98 190.04 200.18 190.32"/><g><rect class="cls-7" x="179.26" y="191.55" width="80.47" height="7.64" rx="1.74" ry="1.74"/><path class="cls-7" d="M257.72,193.55v3.64h-76.47v-3.64h76.47m.26-4h-76.99c-2.07,0-3.74,1.67-3.74,3.74v4.16c0,2.07,1.67,3.74,3.74,3.74h76.99c2.07,0,3.74-1.67,3.74-3.74v-4.16c0-2.07-1.67-3.74-3.74-3.74h0Z"/></g><path class="cls-5" d="M39.41,53.51h113.29c.49,0,.9,.4,.9,.9v12.29c0,.49-.4,.9-.9,.9H39.41c-3.89,0-7.04-3.16-7.04-7.04h0c0-3.89,3.16-7.04,7.04-7.04Z" transform="translate(70.05 -48.01) rotate(45)"/><rect class="cls-5" x="29.63" y="71.44" width="184.94" height="36.47" rx="7.56" ry="7.56" transform="translate(99.17 -60.07) rotate(45)"/><g><path class="cls-1" d="M18.44,146.89c0-45.77,27.63-85.07,67.12-102.16l17.88,17.88c-35.89,11.21-62,44.75-62,84.28,0,33.73,19.02,63.1,46.9,77.95L166.22,66.25,26.8-2.21-70.29,195.49l139.42,68.47,9.06-18.44c-35.51-18.59-59.74-55.78-59.74-98.63Z"/><path class="cls-7" d="M41.44,146.89c0-39.53,26.12-73.07,62-84.28l-17.88-17.88C46.08,61.82,18.44,101.12,18.44,146.89c0,42.86,24.23,80.05,59.74,98.63l10.16-20.68c-27.88-14.85-46.9-44.22-46.9-77.95Z"/></g></svg>