<?xml version="1.0" encoding="UTF-8"?><svg id="Layer_1" xmlns="http://www.w3.org/2000/svg" xmlns:xlink="http://www.w3.org/1999/xlink" viewBox="0 0 278.67 270.49"><defs><style>.cls-1{fill:url(#linear-gradient);}.cls-2,.cls-3{fill:#231f20;}.cls-3{stroke:#231f20;stroke-miterlimit:10;stroke-width:4px;}</style><linearGradient id="linear-gradient" x1="-223.2" y1="201.02" x2="-.91" y2="-34.09" gradientTransform="translate(317.79 -11.03) rotate(-18.98) scale(.84 .66) skewX(-33.88)" gradientUnits="userSpaceOnUse"><stop offset=".28" stop-color="#ec1c24"/><stop offset=".32" stop-color="#f9ec31"/><stop offset=".35" stop-color="#00a14b"/><stop offset=".37" stop-color="#00adee"/><stop offset=".9" stop-color="#00adee"/></linearGradient></defs><polygon class="cls-1" points="206.12 194.62 74.17 62.67 95.21 41.63 247.91 194.33 206.12 194.62"/><g><rect class="cls-2" x="185.19" y="195.85" width="80.47" height="7.64" rx="1.74" ry="1.74"/><path class="cls-2" d="M263.66,197.85v3.64h-76.47v-3.64h76.47m.26-4h-76.99c-2.07,0-3.74,1.67-3.74,3.74v4.16c0,2.07,1.67,3.74,3.74,3.74h76.99c2.07,0,3.74-1.67,3.74-3.74v-4.16c0-2.07-1.67-3.74-3.74-3.74h0Z"/></g><path class="cls-3" d="M37.99,53.64h120.83c.53,0,.96,.43,.96,.96v13.11c0,.53-.43,.96-.96,.96H37.99c-4.15,0-7.51-3.37-7.51-7.51h0c0-4.15,3.37-7.51,7.51-7.51Z" transform="translate(71.1 -49.35) rotate(45)"/><rect class="cls-3" x="27.56" y="72.76" width="197.26" height="38.89" rx="8.06" ry="8.06" transform="translate(102.16 -62.22) rotate(45)"/><path class="cls-2" d="M40.16,153.23c0-42.16,27.86-77.94,66.13-89.89l-19.07-19.07C45.1,62.49,15.63,104.42,15.63,153.23c0,45.71,25.85,85.38,63.72,105.2l10.83-22.06c-29.73-15.84-50.02-47.17-50.02-83.14Z"/></svg>