<?xml version="1.0" encoding="utf-8"?>
<!-- Generator: Adobe Illustrator 26.4.1, SVG Export Plug-In . SVG Version: 6.00 Build 0)  -->
<svg version="1.1" id="Layer_1" xmlns="http://www.w3.org/2000/svg" xmlns:xlink="http://www.w3.org/1999/xlink" x="0px" y="0px"
	 viewBox="0 0 270.5 270.5" style="enable-background:new 0 0 270.5 270.5;" xml:space="preserve">
<style type="text/css">
	.st0{fill:none;stroke:#231F20;stroke-width:5;stroke-miterlimit:10;}
	.st1{fill:#FFFFFF;stroke:#231F20;stroke-width:5;stroke-miterlimit:10;}
	.st2{fill:url(#SVGID_1_);}
	.st3{fill:#231F20;}
	.st4{fill:#231F20;stroke:#231F20;stroke-width:4;stroke-miterlimit:10;}
	.st5{fill:none;}
</style>
<path class="st0" d="M89.5,43.1C47.9,59.2,18.4,99.6,18.4,146.9c0,61.4,49.8,111.3,111.3,111.3c44.5,0,82.9-26.1,100.7-63.9"/>
<circle class="st1" cx="129.7" cy="146.9" r="111.3"/>
<linearGradient id="SVGID_1_" gradientUnits="userSpaceOnUse" x1="359.0476" y1="-364.6042" x2="581.3477" y2="-129.4943" gradientTransform="matrix(0.7943 -0.2732 0.3187 -0.8076 -98.6188 12.2442)">
	<stop  offset="0.28" style="stop-color:#EC1C24"/>
	<stop  offset="0.32" style="stop-color:#F9EC31"/>
	<stop  offset="0.35" style="stop-color:#00A14B"/>
	<stop  offset="0.37" style="stop-color:#00ADEE"/>
	<stop  offset="0.9" style="stop-color:#00ADEE"/>
</linearGradient>
<polygon class="st2" points="200.2,190.3 68.2,58.4 89.3,37.3 242,190 "/>
<g>
	<path class="st3" d="M181,191.6h77c1,0,1.7,0.8,1.7,1.7v4.2c0,1-0.8,1.7-1.7,1.7h-77c-1,0-1.7-0.8-1.7-1.7v-4.2
		C179.3,192.3,180,191.6,181,191.6z"/>
	<path class="st3" d="M257.7,193.6v3.6h-76.5v-3.6H257.7 M258,189.6h-77c-2.1,0-3.7,1.7-3.7,3.7v4.2c0,2.1,1.7,3.7,3.7,3.7h77
		c2.1,0,3.7-1.7,3.7-3.7v-4.2C261.7,191.2,260,189.6,258,189.6L258,189.6z"/>
</g>
<path class="st4" d="M60.1,17.7l80.1,80.1c0.3,0.3,0.4,0.9,0,1.3l-8.7,8.7c-0.3,0.3-0.9,0.4-1.3,0L50.1,27.7c-2.8-2.8-2.7-7.2,0-10
	l0,0C52.9,15,57.3,15,60.1,17.7L60.1,17.7z"/>
<path class="st4" d="M75,16.7L195,136.8c3,3,3,7.7,0,10.7l-15.1,15.1c-3,3-7.7,3-10.7,0L49.2,42.5c-3-3-3-7.7,0-10.7l15.1-15.1
	C67.2,13.8,72,13.8,75,16.7z"/>
<g>
	<path class="st5" d="M18.4,146.9c0-45.8,27.6-85.1,67.1-102.2l17.9,17.9c-35.9,11.2-62,44.7-62,84.3c0,33.7,19,63.1,46.9,77.9
		l77.9-158.6L26.8-2.2l-97.1,197.7L69.1,264l9.1-18.4C42.7,226.9,18.4,189.7,18.4,146.9L18.4,146.9z"/>
	<path class="st3" d="M41.4,146.9c0-39.5,26.1-73.1,62-84.3L85.6,44.7c-39.5,17.1-67.1,56.4-67.1,102.2c0,42.9,24.2,80.1,59.7,98.6
		l10.2-20.7C60.5,210,41.4,180.6,41.4,146.9z"/>
</g>
</svg>
